<svg width="102" height="17" viewBox="0 0 102 17" fill="none" xmlns="http://www.w3.org/2000/svg">
<path d="M8.648 4.24C8.456 5.176 8.192 6.112 7.832 7.024C7.448 7.984 6.992 8.896 6.512 9.76L10.472 12.736L9.2 14.344L5.432 11.488C4.904 12.256 4.376 12.952 3.848 13.576C3.296 14.224 2.768 14.776 2.24 15.232L0.104 13.816C1.16 12.784 2.144 11.632 3.032 10.384C3.896 9.136 4.616 7.72 5.216 6.136H0.00800008V4.24H8.648ZM14.264 15.712H11.624V9.472H8.72V7.576H11.624V1.504H14.264V15.712ZM19.016 16.264H16.376V1.216H19.016V16.264ZM7.856 0.472V2.368H1.016V0.472H7.856ZM33.2574 4.96V1.96H24.4974V0.0639992H35.8974V10.6H33.2574V6.856H23.2734V4.96H33.2574ZM39.1374 12.496V14.392H21.2574V12.496H39.1374ZM49.5727 2.368V7.336H52.4287V1.504H55.0687V15.712H52.4287V9.232H49.5727V13.984H41.2927V2.368H49.5727ZM59.8207 16.264H57.1807V1.216H59.8207V16.264ZM43.9327 12.088H46.9327V4.264H43.9327V12.088ZM80.6381 16.36H77.9741V1H80.6381V16.36ZM65.7821 8.2C65.7821 8.968 65.8301 9.592 65.9501 10.072C66.0461 10.6 66.2141 11.008 66.4541 11.296C66.6461 11.632 66.9101 11.848 67.2221 11.968C67.5101 12.112 67.8461 12.184 68.2301 12.184C68.5901 12.184 68.9261 12.112 69.2381 11.968C69.5261 11.848 69.7901 11.632 70.0301 11.296C70.2221 11.008 70.3901 10.6 70.5101 10.072C70.6061 9.592 70.6781 8.968 70.6781 8.2C70.6781 7.48 70.6061 6.856 70.5101 6.328C70.3901 5.824 70.2221 5.416 70.0301 5.08C69.7901 4.792 69.5261 4.552 69.2381 4.408C68.9261 4.288 68.5901 4.216 68.2301 4.216C67.8461 4.216 67.5101 4.288 67.2221 4.408C66.9101 4.552 66.6461 4.792 66.4541 5.08C66.2141 5.416 66.0461 5.824 65.9501 6.328C65.8301 6.856 65.7821 7.48 65.7821 8.2ZM63.1421 8.2C63.1421 6.184 63.5981 4.696 64.5101 3.736C65.4221 2.8 66.6461 2.32 68.2301 2.32C68.9981 2.32 69.7181 2.44 70.3421 2.656C70.9661 2.896 71.4941 3.256 71.9501 3.736C72.3821 4.216 72.7181 4.84 72.9581 5.56C73.1981 6.328 73.3181 7.192 73.3181 8.2C73.3181 9.208 73.1981 10.096 72.9581 10.816C72.7181 11.584 72.3821 12.184 71.9501 12.664C71.4941 13.144 70.9661 13.504 70.3421 13.72C69.7181 13.96 68.9981 14.08 68.2301 14.08C66.6461 14.08 65.4221 13.624 64.5101 12.664C63.5981 11.728 63.1421 10.24 63.1421 8.2ZM98.3114 9.64H86.9114V0.111999H98.3114V2.008H89.5514V3.832H98.3114V5.728H89.5514V7.744H98.3114V9.64ZM101.551 12.496V14.392H83.6714V12.496H101.551Z" fill="black"/>
</svg>
